# Made in Blockbench 4.12.6
mtllib water_u_1.mtl

o cube
v 0.5 0 0.5
v 0.5 0 -0.5
v 0.5 -0.0625 0.5
v 0.5 -0.0625 -0.5
v -0.5 0 -0.5
v -0.5 0 0.5
v -0.5 -0.0625 -0.5
v -0.5 -0.0625 0.5
vt 0.265625 0.84375
vt 0.515625 0.84375
vt 0.515625 0.828125
vt 0.265625 0.828125
vt 0.265625 0.8125
vt 0.515625 0.8125
vt 0.515625 0.796875
vt 0.265625 0.796875
vt 0.265625 0.78125
vt 0.515625 0.78125
vt 0.515625 0.765625
vt 0.265625 0.765625
vt 0.265625 0.75
vt 0.515625 0.75
vt 0.515625 0.734375
vt 0.265625 0.734375
vt 0.25 0.75
vt 0 0.75
vt 0 1
vt 0.25 1
vt 0.25 0.734375
vt 0 0.734375
vt 0 0.484375
vt 0.25 0.484375
vn 0 0 -1
vn 1 0 0
vn 0 0 1
vn -1 0 0
vn 0 1 0
vn 0 -1 0
usemtl m_60105047-e801-c8dd-5376-3a92d4d1a482
f 4/4/1 7/3/1 5/2/1 2/1/1
f 3/8/2 4/7/2 2/6/2 1/5/2
f 8/12/3 3/11/3 1/10/3 6/9/3
f 7/16/4 8/15/4 6/14/4 5/13/4
f 6/20/5 1/19/5 2/18/5 5/17/5
f 7/24/6 4/23/6 3/22/6 8/21/6
o cube
v -0.19737374104214572 0.00625 0.05873078879911928
v -0.22943812947892714 0.00625 -0.02936539439955964
v -0.19737374104214572 0.00625 0.05873078879911928
v -0.22943812947892714 0.00625 -0.02936539439955964
v -0.31753431267760607 0.00625 0.0026989940372217983
v -0.2854699242408246 0.00625 0.09079517723590072
v -0.31753431267760607 0.00625 0.0026989940372217983
v -0.2854699242408246 0.00625 0.09079517723590072
vt 0.375 0.65625
vt 0.3984375 0.65625
vt 0.3984375 0.65625
vt 0.375 0.65625
vt 0.375 0.65625
vt 0.3984375 0.65625
vt 0.3984375 0.65625
vt 0.375 0.65625
vt 0.375 0.65625
vt 0.3984375 0.65625
vt 0.3984375 0.65625
vt 0.375 0.65625
vt 0.375 0.65625
vt 0.3984375 0.65625
vt 0.3984375 0.65625
vt 0.375 0.65625
vt 0.3671875 0.5234375
vt 0.34375 0.5234375
vt 0.34375 0.546875
vt 0.3671875 0.546875
vt 0.4765625 0.625
vt 0.453125 0.625
vt 0.453125 0.6015625
vt 0.4765625 0.6015625
vn -0.34202014332566866 0 -0.9396926207859084
vn 0.9396926207859084 0 -0.34202014332566866
vn 0.34202014332566866 0 0.9396926207859084
vn -0.9396926207859084 0 0.34202014332566866
vn 0 1 0
vn 0 -1 0
usemtl m_60105047-e801-c8dd-5376-3a92d4d1a482
f 12/28/7 15/27/7 13/26/7 10/25/7
f 11/32/8 12/31/8 10/30/8 9/29/8
f 16/36/9 11/35/9 9/34/9 14/33/9
f 15/40/10 16/39/10 14/38/10 13/37/10
f 14/44/11 9/43/11 10/42/11 13/41/11
f 15/48/12 12/47/12 11/46/12 16/45/12
o cube
v 0.061965303835863156 0.00625 -0.3668421129862468
v 0 0.00625 -0.375
v 0.061965303835863156 0.00625 -0.3668421129862468
v 0 0.00625 -0.375
v -0.00815788701375321 0.00625 -0.3130346961641368
v 0.053807416822109946 0.00625 -0.3048768091503836
v -0.00815788701375321 0.00625 -0.3130346961641368
v 0.053807416822109946 0.00625 -0.3048768091503836
vt 0.265625 0.71875
vt 0.28125 0.71875
vt 0.28125 0.71875
vt 0.265625 0.71875
vt 0.265625 0.71875
vt 0.28125 0.71875
vt 0.28125 0.71875
vt 0.265625 0.71875
vt 0.265625 0.71875
vt 0.28125 0.71875
vt 0.28125 0.71875
vt 0.265625 0.71875
vt 0.265625 0.71875
vt 0.28125 0.71875
vt 0.28125 0.71875
vt 0.265625 0.71875
vt 0.46875 0.671875
vt 0.453125 0.671875
vt 0.453125 0.6875
vt 0.46875 0.6875
vt 0.40625 0.546875
vt 0.390625 0.546875
vt 0.390625 0.53125
vt 0.40625 0.53125
vn -0.9914448613738105 0 -0.13052619222005135
vn 0.13052619222005135 0 -0.9914448613738105
vn 0.9914448613738105 0 0.13052619222005135
vn -0.13052619222005135 0 0.9914448613738105
vn 0 1 0
vn 0 -1 0
usemtl m_60105047-e801-c8dd-5376-3a92d4d1a482
f 20/52/13 23/51/13 21/50/13 18/49/13
f 19/56/14 20/55/14 18/54/14 17/53/14
f 24/60/15 19/59/15 17/58/15 22/57/15
f 23/64/16 24/63/16 22/62/16 21/61/16
f 22/68/17 17/67/17 18/66/17 21/65/17
f 23/72/18 20/71/18 19/70/18 24/69/18
o cube
v -0.2817846961641368 0.00625 -0.11684211298624679
v -0.34375 0.00625 -0.125
v -0.2817846961641368 0.00625 -0.11684211298624679
v -0.34375 0.00625 -0.125
v -0.3519078870137532 0.00625 -0.06303469616413684
v -0.28994258317789007 0.00625 -0.054876809150383635
v -0.3519078870137532 0.00625 -0.06303469616413684
v -0.28994258317789007 0.00625 -0.054876809150383635
vt 0.265625 0.71875
vt 0.28125 0.71875
vt 0.28125 0.71875
vt 0.265625 0.71875
vt 0.265625 0.71875
vt 0.28125 0.71875
vt 0.28125 0.71875
vt 0.265625 0.71875
vt 0.265625 0.71875
vt 0.28125 0.71875
vt 0.28125 0.71875
vt 0.265625 0.71875
vt 0.265625 0.71875
vt 0.28125 0.71875
vt 0.28125 0.71875
vt 0.265625 0.71875
vt 0.4375 0.53125
vt 0.421875 0.53125
vt 0.421875 0.546875
vt 0.4375 0.546875
vt 0.46875 0.546875
vt 0.453125 0.546875
vt 0.453125 0.53125
vt 0.46875 0.53125
vn -0.9914448613738105 0 -0.13052619222005135
vn 0.13052619222005135 0 -0.9914448613738105
vn 0.9914448613738105 0 0.13052619222005135
vn -0.13052619222005135 0 0.9914448613738105
vn 0 1 0
vn 0 -1 0
usemtl m_60105047-e801-c8dd-5376-3a92d4d1a482
f 28/76/19 31/75/19 29/74/19 26/73/19
f 27/80/20 28/79/20 26/78/20 25/77/20
f 32/84/21 27/83/21 25/82/21 30/81/21
f 31/88/22 32/87/22 30/86/22 29/85/22
f 30/92/23 25/91/23 26/90/23 29/89/23
f 31/96/24 28/95/24 27/94/24 32/93/24
o cube
v 0.2995845837682022 0.00625 -0.05570241068695496
v 0.25 0.00625 -0.09375
v 0.2995845837682022 0.00625 -0.05570241068695496
v 0.25 0.00625 -0.09375
v 0.21195241068695497 0.00625 -0.0441654162317978
v 0.26153699445515716 0.00625 -0.006117826918752761
v 0.21195241068695497 0.00625 -0.0441654162317978
v 0.26153699445515716 0.00625 -0.006117826918752761
vt 0.265625 0.71875
vt 0.28125 0.71875
vt 0.28125 0.71875
vt 0.265625 0.71875
vt 0.265625 0.71875
vt 0.28125 0.71875
vt 0.28125 0.71875
vt 0.265625 0.71875
vt 0.265625 0.71875
vt 0.28125 0.71875
vt 0.28125 0.71875
vt 0.265625 0.71875
vt 0.265625 0.71875
vt 0.28125 0.71875
vt 0.28125 0.71875
vt 0.265625 0.71875
vt 0.28125 0.515625
vt 0.265625 0.515625
vt 0.265625 0.53125
vt 0.28125 0.53125
vt 0.484375 0.71875
vt 0.46875 0.71875
vt 0.46875 0.703125
vt 0.484375 0.703125
vn -0.7933533402912352 0 -0.6087614290087207
vn 0.6087614290087207 0 -0.7933533402912352
vn 0.7933533402912352 0 0.6087614290087207
vn -0.6087614290087207 0 0.7933533402912352
vn 0 1 0
vn 0 -1 0
usemtl m_60105047-e801-c8dd-5376-3a92d4d1a482
f 36/100/25 39/99/25 37/98/25 34/97/25
f 35/104/26 36/103/26 34/102/26 33/101/26
f 40/108/27 35/107/27 33/106/27 38/105/27
f 39/112/28 40/111/28 38/110/28 37/109/28
f 38/116/29 33/115/29 34/114/29 37/113/29
f 39/120/30 36/119/30 35/118/30 40/117/30
o cylinder
v 0.333108100350374 0 0.4168918996496259
v 0.333108100350374 0.0625 0.4168918996496259
v 0.2497873513005592 0 0.5002126486994407
v 0.2497873513005592 0.0625 0.5002126486994407
v 0.49977169553691575 0 0.500234745786353
v 0.49977169553691575 0.0625 0.500234745786353
v 0.24976525421364718 0 0.2502283044630841
v 0.24976525421364718 0.0625 0.2502283044630841
vt 0.3566953125 0.671875
vt 0.3125 0.7160625
vt 0.3125 0.6866046875
vt 0.265625 0.578125
vt 0.328125 0.578125
vt 0.328125 0.59375
vt 0.265625 0.59375
vt 0.3125 0.6120625
vt 0.3566953125 0.65625
vt 0.3125 0.6415203125
vt 0.2683046875 0.671875
vt 0.3566953125 0.671875
vt 0.3125 0.6866046875
vt 0.40625 0.921875
vt 0.5 0.921875
vt 0.5 0.9375
vt 0.40625 0.9375
vt 0.3566953125 0.65625
vt 0.2683046875 0.65625
vt 0.3125 0.6415203125
vt 0.3125 0.7160625
vt 0.2683046875 0.671875
vt 0.3125 0.6866046875
vt 0.40625 0.859375
vt 0.46875 0.859375
vt 0.46875 0.875
vt 0.40625 0.875
vt 0.2683046875 0.65625
vt 0.3125 0.6120625
vt 0.3125 0.6415203125
vn 0 -1 0
vn -0.00008839388279863193 0 0.9999999960932608
vn 0 1 0
vn 0 -1 0
vn 0.7071067811865478 0 -0.7071067811865472
vn 0 1 0
vn 0 -1 0
vn -0.9999999960932608 0 0.00008839388279779926
vn 0 1 0
usemtl m_60105047-e801-c8dd-5376-3a92d4d1a482
f 45/121/31 43/122/31 41/123/31
f 43/124/32 45/125/32 46/126/32 44/127/32
f 44/128/33 46/129/33 42/130/33
f 47/131/34 45/132/34 41/133/34
f 45/134/35 47/135/35 48/136/35 46/137/35
f 46/138/36 48/139/36 42/140/36
f 43/141/37 47/142/37 41/143/37
f 47/144/38 43/145/38 44/146/38 48/147/38
f 48/148/39 44/149/39 42/150/39
o cube
v 0.250625 0.063125 0.500625
v 0.250625 0.063125 0.249375
v 0.250625 -0.0006250000000000006 0.500625
v 0.250625 -0.0006250000000000006 0.249375
v -0.250625 0.063125 0.249375
v -0.250625 0.063125 0.500625
v -0.250625 -0.0006250000000000006 0.249375
v -0.250625 -0.0006250000000000006 0.500625
vt 0.40625 1
vt 0.53125 1
vt 0.53125 0.984375
vt 0.40625 0.984375
vt 0.34375 0.578125
vt 0.40625 0.578125
vt 0.40625 0.5625
vt 0.34375 0.5625
vt 0.40625 0.96875
vt 0.53125 0.96875
vt 0.53125 0.953125
vt 0.40625 0.953125
vt 0.421875 0.65625
vt 0.484375 0.65625
vt 0.484375 0.640625
vt 0.421875 0.640625
vt 0.390625 0.9375
vt 0.265625 0.9375
vt 0.265625 1
vt 0.390625 1
vt 0.390625 0.921875
vt 0.265625 0.921875
vt 0.265625 0.859375
vt 0.390625 0.859375
vn 0 0 -1
vn 1 0 0
vn 0 0 1
vn -1 0 0
vn 0 1 0
vn 0 -1 0
usemtl m_60105047-e801-c8dd-5376-3a92d4d1a482
f 52/154/40 55/153/40 53/152/40 50/151/40
f 51/158/41 52/157/41 50/156/41 49/155/41
f 56/162/42 51/161/42 49/160/42 54/159/42
f 55/166/43 56/165/43 54/164/43 53/163/43
f 54/170/44 49/169/44 50/168/44 53/167/44
f 55/174/45 52/173/45 51/172/45 56/171/45
o cylinder
v -0.3331081003503741 0 0.416891899649626
v -0.3331081003503741 0.0625 0.416891899649626
v -0.2497873513005593 0 0.5002126486994408
v -0.2497873513005593 0.0625 0.5002126486994408
v -0.2497652542136471 0 0.2502283044630842
v -0.2497652542136471 0.0625 0.2502283044630842
v -0.4997716955369159 0 0.5002347457863529
v -0.4997716955369159 0.0625 0.5002347457863529
vt 0.4348203125 0.59375
vt 0.390625 0.6379375
vt 0.390625 0.6084796875
vt 0.265625 0.546875
vt 0.328125 0.546875
vt 0.328125 0.5625
vt 0.265625 0.5625
vt 0.40625 0.6745625
vt 0.4504453125 0.71875
vt 0.40625 0.7040203125
vt 0.3464296875 0.59375
vt 0.4348203125 0.59375
vt 0.390625 0.6084796875
vt 0.40625 0.890625
vt 0.5 0.890625
vt 0.5 0.90625
vt 0.40625 0.90625
vt 0.4504453125 0.71875
vt 0.3620546875 0.71875
vt 0.40625 0.7040203125
vt 0.390625 0.6379375
vt 0.3464296875 0.59375
vt 0.390625 0.6084796875
vt 0.421875 0.5625
vt 0.484375 0.5625
vt 0.484375 0.578125
vt 0.421875 0.578125
vt 0.3620546875 0.71875
vt 0.40625 0.6745625
vt 0.40625 0.7040203125
vn 0 -1 0
vn 0.9999999960932608 0 0.00008839388279840989
vn 0 1 0
vn 0 -1 0
vn -0.7071067811865474 0 -0.7071067811865477
vn 0 1 0
vn 0 -1 0
vn 0.0000883938827979658 0 0.9999999960932608
vn 0 1 0
usemtl m_60105047-e801-c8dd-5376-3a92d4d1a482
f 61/175/46 59/176/46 57/177/46
f 59/178/47 61/179/47 62/180/47 60/181/47
f 60/182/48 62/183/48 58/184/48
f 63/185/49 61/186/49 57/187/49
f 61/188/50 63/189/50 64/190/50 62/191/50
f 62/192/51 64/193/51 58/194/51
f 59/195/52 63/196/52 57/197/52
f 63/198/53 59/199/53 60/200/53 64/201/53
f 64/202/54 60/203/54 58/204/54