# Made in Blockbench 4.12.6
mtllib water_l_1.mtl

o cube
v 0.5 0 0.5
v 0.5 0 -0.5
v 0.5 -0.0625 0.5
v 0.5 -0.0625 -0.5
v -0.5 0 -0.5
v -0.5 0 0.5
v -0.5 -0.0625 -0.5
v -0.5 -0.0625 0.5
vt 0 0.59375
vt 0.25 0.59375
vt 0.25 0.578125
vt 0 0.578125
vt 0 0.5625
vt 0.25 0.5625
vt 0.25 0.546875
vt 0 0.546875
vt 0 0.53125
vt 0.25 0.53125
vt 0.25 0.515625
vt 0 0.515625
vt 0 0.5
vt 0.25 0.5
vt 0.25 0.484375
vt 0 0.484375
vt 0.546875 0.453125
vt 0.296875 0.453125
vt 0.296875 0.703125
vt 0.546875 0.703125
vt 0.625 1
vt 0.375 1
vt 0.375 0.75
vt 0.625 0.75
vn 0 0 -1
vn 1 0 0
vn 0 0 1
vn -1 0 0
vn 0 1 0
vn 0 -1 0
usemtl m_4d3e35c0-0ab1-2288-72c7-3bdec618f543
f 4/4/1 7/3/1 5/2/1 2/1/1
f 3/8/2 4/7/2 2/6/2 1/5/2
f 8/12/3 3/11/3 1/10/3 6/9/3
f 7/16/4 8/15/4 6/14/4 5/13/4
f 6/20/5 1/19/5 2/18/5 5/17/5
f 7/24/6 4/23/6 3/22/6 8/21/6
o cube
v 0.08891364135879375 0.00625 -0.43164423668979063
v 0.04929317932060313 0.00625 -0.3466778816551047
v 0.08891364135879375 0.00625 -0.43164423668979063
v 0.04929317932060313 0.00625 -0.3466778816551047
v 0.13425953435528906 0.00625 -0.3070574196169141
v 0.17387999639347967 0.00625 -0.3920237746516
v 0.13425953435528906 0.00625 -0.3070574196169141
v 0.17387999639347967 0.00625 -0.3920237746516
vt 0.046875 0.9375
vt 0.0703125 0.9375
vt 0.0703125 0.9375
vt 0.046875 0.9375
vt 0.046875 0.9375
vt 0.0703125 0.9375
vt 0.0703125 0.9375
vt 0.046875 0.9375
vt 0.046875 0.9375
vt 0.0703125 0.9375
vt 0.0703125 0.9375
vt 0.046875 0.9375
vt 0.046875 0.9375
vt 0.0703125 0.9375
vt 0.0703125 0.9375
vt 0.046875 0.9375
vt 0.0234375 0.9765625
vt 0 0.9765625
vt 0 1
vt 0.0234375 1
vt 0.0234375 0.953125
vt 0 0.953125
vt 0 0.9296875
vt 0.0234375 0.9296875
vn -0.42261826174069983 0 0.9063077870366499
vn -0.9063077870366499 0 -0.42261826174069983
vn 0.42261826174069983 0 -0.9063077870366499
vn 0.9063077870366499 0 0.42261826174069983
vn 0 1 0
vn 0 -1 0
usemtl m_4d3e35c0-0ab1-2288-72c7-3bdec618f543
f 12/28/7 15/27/7 13/26/7 10/25/7
f 11/32/8 12/31/8 10/30/8 9/29/8
f 16/36/9 11/35/9 9/34/9 14/33/9
f 15/40/10 16/39/10 14/38/10 13/37/10
f 14/44/11 9/43/11 10/42/11 13/41/11
f 15/48/12 12/47/12 11/46/12 16/45/12
o cube
v 0.2995845837682022 0.00625 -0.02445241068695496
v 0.25 0.00625 -0.0625
v 0.2995845837682022 0.00625 -0.02445241068695496
v 0.25 0.00625 -0.0625
v 0.21195241068695497 0.00625 -0.012915416231797802
v 0.26153699445515716 0.00625 0.02513217308124724
v 0.21195241068695497 0.00625 -0.012915416231797802
v 0.26153699445515716 0.00625 0.02513217308124724
vt 0.078125 1
vt 0.09375 1
vt 0.09375 1
vt 0.078125 1
vt 0.078125 1
vt 0.09375 1
vt 0.09375 1
vt 0.078125 1
vt 0.078125 1
vt 0.09375 1
vt 0.09375 1
vt 0.078125 1
vt 0.078125 1
vt 0.09375 1
vt 0.09375 1
vt 0.078125 1
vt 0.0625 0.984375
vt 0.046875 0.984375
vt 0.046875 1
vt 0.0625 1
vt 0.0625 0.96875
vt 0.046875 0.96875
vt 0.046875 0.953125
vt 0.0625 0.953125
vn -0.7933533402912352 0 -0.6087614290087207
vn 0.6087614290087207 0 -0.7933533402912352
vn 0.7933533402912352 0 0.6087614290087207
vn -0.6087614290087207 0 0.7933533402912352
vn 0 1 0
vn 0 -1 0
usemtl m_4d3e35c0-0ab1-2288-72c7-3bdec618f543
f 20/52/13 23/51/13 21/50/13 18/49/13
f 19/56/14 20/55/14 18/54/14 17/53/14
f 24/60/15 19/59/15 17/58/15 22/57/15
f 23/64/16 24/63/16 22/62/16 21/61/16
f 22/68/17 17/67/17 18/66/17 21/65/17
f 23/72/18 20/71/18 19/70/18 24/69/18
o cylinder
v -0.16688719583082345 0 0.16688719583082345
v -0.16688719583082345 0.0625 0.16688719583082345
v -0.5002285282353484 0 0.5002285282353482
v -0.5002285282353484 0.0625 0.5002285282353482
v 0.49977513997081435 0 0.5002064311484362
v 0.49977513997081435 0.0625 0.5002064311484362
v -0.5002064311484362 0 -0.49977513997081446
v -0.5002064311484362 0.0625 -0.49977513997081446
vt 0.35646093749999996 0.8203125
vt 0.1796875 0.99709375
vt 0.1796875 0.8792390625
vt 0 0.453125
vt 0.25 0.453125
vt 0.25 0.46875
vt 0 0.46875
vt 0.1796875 0.62009375
vt 0.35646093749999996 0.796875
vt 0.1796875 0.7379484375
vt 0.0029140625000000087 0.8203125
vt 0.35646093749999996 0.8203125
vt 0.1796875 0.8792390625
vt 0.328125 0.71875
vt 0.6875 0.71875
vt 0.6875 0.734375
vt 0.328125 0.734375
vt 0.35646093749999996 0.796875
vt 0.0029140625000000087 0.796875
vt 0.1796875 0.7379484375
vt 0.1796875 0.99709375
vt 0.0029140625000000087 0.8203125
vt 0.1796875 0.8792390625
vt 0 0.421875
vt 0.25 0.421875
vt 0.25 0.4375
vt 0 0.4375
vt 0.0029140625000000087 0.796875
vt 0.1796875 0.62009375
vt 0.1796875 0.7379484375
vn 0 -1 0
vn 0.000022097005850263418 0 0.9999999997558613
vn 0 1 0
vn 0 -1 0
vn 0.7071067811865476 0 -0.7071067811865475
vn 0 1 0
vn 0 -1 0
vn -0.9999999997558613 0 -0.000022097005850485463
vn 0 1 0
usemtl m_4d3e35c0-0ab1-2288-72c7-3bdec618f543
f 29/73/19 27/74/19 25/75/19
f 27/76/20 29/77/20 30/78/20 28/79/20
f 28/80/21 30/81/21 26/82/21
f 31/83/22 29/84/22 25/85/22
f 29/86/23 31/87/23 32/88/23 30/89/23
f 30/90/24 32/91/24 26/92/24
f 27/93/25 31/94/25 25/95/25
f 31/96/26 27/97/26 28/98/26 32/99/26
f 32/100/27 28/101/27 26/102/27