# Made in Blockbench 4.12.6
mtllib land_1.mtl

o beveled_cuboid
v 0.4375 0.3125 0.4375
v 0.4375 0.3125 -0.4375
v -0.4375 0.3125 0.4375
v -0.4375 0.3125 -0.4375
v 0.5 0 0.5
v 0.5 0 -0.5
v -0.5 0 0.5
v -0.5 0 -0.5
v -0.5 0.25 -0.5
v 0.5 0.25 0.5
v 0.5 0.25 -0.5
v -0.5 0.25 0.5
vt 0.484375 0.78125
vt 0.484375 1
vt 0.265625 1
vt 0.265625 0.78125
vt 0 0.75
vt 0.25 0.75
vt 0.25 1
vt 0 1
vt 0.46875 0.546875
vt 0.25 0.546875
vt 0.234375 0.53125
vt 0.484375 0.53125
vt 0.71875 0.6875
vt 0.703125 0.703125
vt 0.484375 0.703125
vt 0.46875 0.6875
vt 0.515625 0.75
vt 0.5 0.765625
vt 0.28125 0.765625
vt 0.265625 0.75
vt 0.65625 0.734375
vt 0.4375 0.734375
vt 0.421875 0.71875
vt 0.671875 0.71875
vt 0.15625 0.734375
vt 0.15625 0.703125
vt 0.40625 0.703125
vt 0.40625 0.734375
vt 0.203125 0.65625
vt 0.453125 0.65625
vt 0.453125 0.6875
vt 0.203125 0.6875
vt 0.234375 0.609375
vt 0.484375 0.609375
vt 0.484375 0.640625
vt 0.234375 0.640625
vt 0.234375 0.59375
vt 0.234375 0.5625
vt 0.484375 0.5625
vt 0.484375 0.59375
vn 0 1 0
vn 0 -1 0
vn 0.7071067811865476 0.7071067811865476 0
vn -0.7071067811865476 0.7071067811865476 0
vn 0 0.7071067811865476 0.7071067811865476
vn 0 0.7071067811865476 -0.7071067811865476
vn 1 0 0
vn -1 0 0
vn 0 0 1
vn 0 0 -1
usemtl m_dcd5df0e-94af-ef40-0ee1-c03767b4a5cd
f 1/1/1 2/2/1 4/3/1 3/4/1
f 8/5/2 6/6/2 5/7/2 7/8/2
f 2/9/3 1/10/3 10/11/3 11/12/3
f 12/13/4 3/14/4 4/15/4 9/16/4
f 10/17/5 1/18/5 3/19/5 12/20/5
f 4/21/6 2/22/6 11/23/6 9/24/6
f 10/25/7 5/26/7 6/27/7 11/28/7
f 8/29/8 7/30/8 12/31/8 9/32/8
f 7/33/9 5/34/9 10/35/9 12/36/9
f 11/37/10 6/38/10 8/39/10 9/40/10
o circle
v -0.4375 0.315625 0.4375
v 0.25 0.315625 0.4375
v 0.25 0.315625 0.152728125
v -0.152728125 0.315625 -0.25
v -0.4375 0.315625 -0.25
vt 0.515625 0.828125
vt 0.586703125 0.828125
vt 0.515625 1
vt 0.65778078125 1
vt 0.515625 1
vt 0.5867028125 0.82812484375
vt 0.586734375 0.828125
vt 0.6578125 0.828125
vt 0.6578125 1
vn 0 1 0
vn 0 1 0
vn 0 1 0
usemtl m_dcd5df0e-94af-ef40-0ee1-c03767b4a5cd
f 14/41/11 15/42/11 13/43/11
f 15/44/12 16/45/12 13/46/12
f 16/47/13 17/48/13 13/49/13
o circle
v 0.43750000000000006 0.315625 -0.43749999999999994
v 0.125 0.315625 -0.43749999999999994
v 0.125 0.315625 -0.30805812499999996
v 0.30805812500000007 0.315625 -0.125
v 0.43750000000000006 0.315625 -0.125
vt 0.71875 0.921875
vt 0.748953125 0.921875
vt 0.71875 1
vt 0.77915625 1
vt 0.71875 1
vt 0.748953125 0.921875
vt 0.748953125 0.921875
vt 0.77915625 0.921875
vt 0.77915625 1
vn 0 1 0
vn 0 1 0
vn 0 1 0
usemtl m_dcd5df0e-94af-ef40-0ee1-c03767b4a5cd
f 19/50/14 20/51/14 18/52/14
f 20/53/15 21/54/15 18/55/15
f 21/56/16 22/57/16 18/58/16