# Made in Blockbench 4.12.6
mtllib player_1.mtl

o cube
v 0.044194173824159216 0.4375 -3.469446951953614e-18
v -3.469446951953614e-18 0.4375 -0.044194173824159216
v 0.044194173824159216 0.28125 -3.469446951953614e-18
v -3.469446951953614e-18 0.28125 -0.044194173824159216
v -0.044194173824159216 0.4375 3.469446951953614e-18
v 3.469446951953614e-18 0.4375 0.044194173824159216
v -0.044194173824159216 0.28125 3.469446951953614e-18
v 3.469446951953614e-18 0.28125 0.044194173824159216
vt 0.25 0.8125
vt 0.3125 0.8125
vt 0.3125 0.65625
vt 0.25 0.65625
vt 0 0.625
vt 0.0625 0.625
vt 0.0625 0.46875
vt 0 0.46875
vt 0.125 0.625
vt 0.1875 0.625
vt 0.1875 0.46875
vt 0.125 0.46875
vt 0.375 0.8125
vt 0.4375 0.8125
vt 0.4375 0.65625
vt 0.375 0.65625
vt 0.5 0.5
vt 0.4375 0.5
vt 0.4375 0.5625
vt 0.5 0.5625
vt 0.5625 0.875
vt 0.5 0.875
vt 0.5 0.8125
vt 0.5625 0.8125
vn -0.7071067811865476 0 -0.7071067811865475
vn 0.7071067811865475 0 -0.7071067811865476
vn 0.7071067811865476 0 0.7071067811865475
vn -0.7071067811865475 0 0.7071067811865476
vn 0 1 0
vn 0 -1 0
usemtl m_75206868-3397-0d67-475d-5b9d12159f5e
f 4/4/1 7/3/1 5/2/1 2/1/1
f 3/8/2 4/7/2 2/6/2 1/5/2
f 8/12/3 3/11/3 1/10/3 6/9/3
f 7/16/4 8/15/4 6/14/4 5/13/4
f 6/20/5 1/19/5 2/18/5 5/17/5
f 7/24/6 4/23/6 3/22/6 8/21/6
o cone
v 0 0.4375 0
v 0 0.5 0
v 0.025888347648318443 0.4375 0.0625
v 0.0625 0.4375 0.025888347648318447
v 0.0625 0.4375 -0.02588834764831844
v 0.02588834764831845 0.4375 -0.0625
v -0.025888347648318436 0.4375 -0.06250000000000001
v -0.062499999999999986 0.4375 -0.02588834764831848
v -0.06249999999999999 0.4375 0.025888347648318457
v -0.025888347648318485 0.4375 0.062499999999999986
vt 0.125 0.9633875
vt 0.08838750000000001 1
vt 0.0625 0.9375
vt 0.2915125 0.9116125
vt 0.335106511112789 0.9395447899186234
vt 0.265625 1
vt 0.125 0.9116124999999999
vt 0.125 0.9633875
vt 0.0625 0.9375
vt 0.4383247209223983 1
vt 0.45287756771667453 0.9503123227028841
vt 0.5304252790776017 1
vt 0.08838750000000001 0.875
vt 0.125 0.9116124999999999
vt 0.0625 0.9375
vt 0.008643488887211018 0.7520447899186233
vt 0.0522375 0.7241124999999999
vt 0.07812500000000001 0.8125
vt 0.0366125 0.875
vt 0.08838750000000001 0.875
vt 0.0625 0.9375
vt 0.0522375 0.7241124999999999
vt 0.1040125 0.7241124999999999
vt 0.078125 0.8125
vt 0 0.9116124999999999
vt 0.0366125 0.875
vt 0.0625 0.9375
vt 0.1040125 0.7241124999999999
vt 0.147606511112789 0.7520447899186233
vt 0.07812499999999999 0.8125
vt 0 0.9633875
vt 0 0.9116124999999999
vt 0.0625 0.9375
vt 0.2508247209223983 0.5625
vt 0.26537756771667453 0.5128123227028841
vt 0.3429252790776017 0.5625
vt 0.0366125 1
vt 0 0.9633875
vt 0.0625 0.9375
vt 0.196143488887211 0.9395447899186234
vt 0.2397375 0.9116125
vt 0.265625 1
vt 0.08838750000000001 1
vt 0.0366125 1
vt 0.0625 0.9375
vt 0.2397375 0.9116125
vt 0.2915125 0.9116125
vt 0.265625 1
vn 0 -1 0
vn 0.5 0.7071067811865476 0.5
vn 0 -1 0
vn 0.7071067811865476 0.7071067811865476 0
vn 0 -1 0
vn 0.5000000000000001 0.7071067811865476 -0.5
vn 0 -1 0
vn 1.8952692539670438e-16 0.7071067811865476 -0.7071067811865475
vn 0 -1 0
vn -0.49999999999999983 0.7071067811865476 -0.5000000000000001
vn 0 -1 0
vn -0.7071067811865477 0.7071067811865475 -9.476346269835214e-17
vn 0 -1 0
vn -0.5000000000000001 0.7071067811865476 0.4999999999999999
vn 0 -1 0
vn -1.8952692539670425e-16 0.7071067811865475 0.7071067811865476
usemtl m_75206868-3397-0d67-475d-5b9d12159f5e
f 12/25/7 11/26/7 9/27/7
f 11/28/8 12/29/8 10/30/8
f 13/31/9 12/32/9 9/33/9
f 12/34/10 13/35/10 10/36/10
f 14/37/11 13/38/11 9/39/11
f 13/40/12 14/41/12 10/42/12
f 15/43/13 14/44/13 9/45/13
f 14/46/14 15/47/14 10/48/14
f 16/49/15 15/50/15 9/51/15
f 15/52/16 16/53/16 10/54/16
f 17/55/17 16/56/17 9/57/17
f 16/58/18 17/59/18 10/60/18
f 18/61/19 17/62/19 9/63/19
f 17/64/20 18/65/20 10/66/20
f 11/67/21 18/68/21 9/69/21
f 18/70/22 11/71/22 10/72/22